<?xml version="1.0" encoding="UTF-8"?>
<!DOCTYPE svg PUBLIC "-//W3C//DTD SVG 1.1//EN" "http://www.w3.org/Graphics/SVG/1.1/DTD/svg11.dtd">
<svg xmlns="http://www.w3.org/2000/svg" version="1.1" width="75px" height="46px" style="shape-rendering:geometricPrecision; text-rendering:geometricPrecision; image-rendering:optimizeQuality; fill-rule:evenodd; clip-rule:evenodd" xmlns:xlink="http://www.w3.org/1999/xlink">
<g><path style="opacity:1" fill="#fefffe" d="M -0.5,-0.5 C 24.5,-0.5 49.5,-0.5 74.5,-0.5C 74.5,14.8333 74.5,30.1667 74.5,45.5C 74.1667,45.5 73.8333,45.5 73.5,45.5C 73.5,30.5 73.5,15.5 73.5,0.5C 49.1667,0.5 24.8333,0.5 0.5,0.5C 0.5,15.5 0.5,30.5 0.5,45.5C 0.166667,45.5 -0.166667,45.5 -0.5,45.5C -0.5,30.1667 -0.5,14.8333 -0.5,-0.5 Z"/></g>
<g><path style="opacity:1" fill="#070202" d="M 73.5,45.5 C 49.1667,45.5 24.8333,45.5 0.5,45.5C 0.5,30.5 0.5,15.5 0.5,0.5C 24.8333,0.5 49.1667,0.5 73.5,0.5C 73.5,15.5 73.5,30.5 73.5,45.5 Z"/></g>
<g><path style="opacity:1" fill="#fbfbfa" d="M 69.5,32.5 C 66.8217,29.668 64.4884,26.5013 62.5,23C 67.1243,21.4251 68.2909,18.5917 66,14.5C 62.5309,12.9971 58.8643,12.3304 55,12.5C 52.5,12.6667 50,12.8333 47.5,13C 48.448,13.4828 49.448,13.6495 50.5,13.5C 50.5,19.8333 50.5,26.1667 50.5,32.5C 50.8902,33.7945 53.5569,33.9612 58.5,33C 57.5838,32.6258 56.7504,32.1258 56,31.5C 55.1816,28.7728 55.3483,26.1062 56.5,23.5C 59.1875,26.3617 61.5209,29.5283 63.5,33C 65.4727,33.4955 67.4727,33.6621 69.5,33.5C 69.5,36.1667 69.5,38.8333 69.5,41.5C 47.8333,41.5 26.1667,41.5 4.5,41.5C 4.5,38.8333 4.5,36.1667 4.5,33.5C 9.45445,34.0574 12.1211,33.7241 12.5,32.5C 12.5,29.5 12.5,26.5 12.5,23.5C 14.9928,23.3291 16.8261,24.3291 18,26.5C 18.6667,24.1667 18.6667,21.8333 18,19.5C 17.0718,22.0352 15.2385,23.0352 12.5,22.5C 12.5,19.5 12.5,16.5 12.5,13.5C 14.8568,13.3367 17.1902,13.5034 19.5,14C 20.6667,14.5 21.5,15.3333 22,16.5C 22.49,15.2068 22.6567,13.8734 22.5,12.5C 16.5,12.5 10.5,12.5 4.5,12.5C 4.5,9.83333 4.5,7.16667 4.5,4.5C 26.1667,4.5 47.8333,4.5 69.5,4.5C 69.5,13.8333 69.5,23.1667 69.5,32.5 Z"/></g>
<g><path style="opacity:1" fill="#1c858a" d="M 24.5,13.5 C 30.5437,11.927 36.5437,12.427 42.5,15C 46.326,19.9711 46.4926,25.1378 43,30.5C 37.1683,33.3622 31.0017,34.1955 24.5,33C 25.4162,32.6258 26.2496,32.1258 27,31.5C 27.6667,25.8333 27.6667,20.1667 27,14.5C 26.3292,13.7476 25.4959,13.4142 24.5,13.5 Z"/></g>
<g><path style="opacity:1" fill="#1f8389" d="M 69.5,32.5 C 70.8333,32.8333 70.8333,33.1667 69.5,33.5C 67.4727,33.6621 65.4727,33.4955 63.5,33C 61.5209,29.5283 59.1875,26.3617 56.5,23.5C 55.3483,26.1062 55.1816,28.7728 56,31.5C 56.7504,32.1258 57.5838,32.6258 58.5,33C 53.5569,33.9612 50.8902,33.7945 50.5,32.5C 50.5,26.1667 50.5,19.8333 50.5,13.5C 49.448,13.6495 48.448,13.4828 47.5,13C 50,12.8333 52.5,12.6667 55,12.5C 58.8643,12.3304 62.5309,12.9971 66,14.5C 68.2909,18.5917 67.1243,21.4251 62.5,23C 64.4884,26.5013 66.8217,29.668 69.5,32.5 Z"/></g>
<g><path style="opacity:1" fill="#fefdf6" d="M 4.5,13.5 C 5.5,13.5 6.5,13.5 7.5,13.5C 7.5,19.8333 7.5,26.1667 7.5,32.5C 6.5,32.5 5.5,32.5 4.5,32.5C 4.5,26.1667 4.5,19.8333 4.5,13.5 Z"/></g>
<g><path style="opacity:1" fill="#fcf9f4" d="M 32.5,13.5 C 38.3739,13.8905 40.7072,17.0572 39.5,23C 40.8747,29.1263 38.5413,32.293 32.5,32.5C 32.5,26.1667 32.5,19.8333 32.5,13.5 Z"/></g>
<g><path style="opacity:1" fill="#f2efe9" d="M 55.5,13.5 C 62.4863,13.331 64.153,16.1643 60.5,22C 58.8659,22.4935 57.1992,22.6602 55.5,22.5C 55.5,19.5 55.5,16.5 55.5,13.5 Z"/></g>
</svg>
